<svg width="68" height="68" viewBox="0 0 68 68" fill="none" xmlns="http://www.w3.org/2000/svg">
<path d="M31.5811 19.8985C32.6578 17.9633 33.1961 17 34.0008 17C34.8055 17 35.3438 17.9633 36.4205 19.8985L36.6981 20.3972C37.0041 20.9468 37.1571 21.2188 37.3951 21.4002C37.636 21.5815 37.9335 21.6495 38.5285 21.7827L39.0668 21.9073C41.1578 22.3805 42.2033 22.6157 42.4526 23.4147C42.702 24.2165 41.988 25.0495 40.5628 26.7155L40.1945 27.1462C39.7893 27.6193 39.5853 27.8545 39.4946 28.1492C39.404 28.4438 39.4351 28.7583 39.4946 29.3902L39.5513 29.9653C39.7666 32.1895 39.8743 33.303 39.2255 33.796C38.5738 34.289 37.5935 33.8385 35.6356 32.9375L35.1313 32.7052C34.5731 32.4502 34.2955 32.3227 34.0008 32.3227C33.7061 32.3227 33.4285 32.4502 32.8703 32.7052L32.366 32.9375C30.4081 33.8413 29.4278 34.289 28.7761 33.796C28.1245 33.303 28.235 32.1895 28.4503 29.9653L28.507 29.3902C28.5665 28.7583 28.5976 28.4438 28.507 28.1492C28.4163 27.8573 28.2123 27.6193 27.8071 27.1462L27.4388 26.7155C26.0136 25.0495 25.2996 24.2165 25.549 23.4147C25.7983 22.6157 26.8438 22.3805 28.9348 21.9073L29.4731 21.7827C30.0681 21.6495 30.3656 21.5843 30.6065 21.4002C30.8445 21.2188 30.9975 20.9468 31.3035 20.3972L31.5811 19.8985Z" stroke="white" stroke-width="2"/>
<path d="M53.8337 25.5C53.8337 28.1045 53.3207 30.6836 52.3239 33.0899C51.3272 35.4962 49.8663 37.6826 48.0246 39.5243C46.1829 41.366 43.9965 42.8269 41.5902 43.8236C39.1839 44.8203 36.6049 45.3333 34.0003 45.3333C31.3958 45.3333 28.8167 44.8203 26.4104 43.8236C24.0041 42.8269 21.8177 41.366 19.976 39.5243C18.1343 37.6826 16.6734 35.4962 15.6767 33.0899C14.68 30.6836 14.167 28.1045 14.167 25.5C14.167 20.2399 16.2566 15.1952 19.976 11.4757C23.6955 7.75623 28.7402 5.66666 34.0003 5.66666C39.2605 5.66666 44.3051 7.75623 48.0246 11.4757C51.7441 15.1952 53.8337 20.2399 53.8337 25.5Z" stroke="white" stroke-width="4"/>
<path d="M20.8284 42.5L19.0236 49.0818C17.2442 55.5758 16.3546 58.8228 17.5417 60.5993C17.9582 61.2227 18.5164 61.7213 19.1652 62.0528C21.0126 62.9935 23.8686 61.506 29.5777 58.531C31.4761 57.5393 32.4281 57.0463 33.4367 56.9387C33.8116 56.8985 34.1896 56.8985 34.5644 56.9387C35.5731 57.0463 36.5222 57.5422 38.4234 58.531C44.1326 61.506 46.9886 62.9935 48.8359 62.0528C49.4847 61.7213 50.0429 61.2227 50.4594 60.5993C51.6494 58.8228 50.7569 55.5758 48.9776 49.0818L47.1727 42.5" stroke="white" stroke-width="4" stroke-linecap="round"/>
</svg>
