<svg width="56" height="56" viewBox="0 0 56 56" fill="none" xmlns="http://www.w3.org/2000/svg">
<g clip-path="url(#clip0_97_289)">
<path fill-rule="evenodd" clip-rule="evenodd" d="M44.4966 28.0233C44.8004 28.0663 45.0928 28.1687 45.3569 28.3247C45.6211 28.4807 45.8519 28.6873 46.0361 28.9327C46.2203 29.178 46.3544 29.4573 46.4305 29.7545C46.5067 30.0517 46.5235 30.361 46.48 30.6647C45.8951 34.7107 43.9988 38.4531 41.0821 41.3176C38.1653 44.1821 34.3893 46.0104 30.3333 46.522V49C30.3333 49.6188 30.0875 50.2123 29.6499 50.6499C29.2123 51.0875 28.6188 51.3333 28 51.3333C27.3811 51.3333 26.7876 51.0875 26.3501 50.6499C25.9125 50.2123 25.6666 49.6188 25.6666 49V46.522C21.6112 46.0095 17.8359 44.1809 14.9197 41.3165C12.0035 38.4522 10.1074 34.7102 9.52231 30.6647C9.43443 30.052 9.59353 29.4296 9.9646 28.9342C10.3357 28.4389 10.8883 28.1112 11.501 28.0233C12.1136 27.9355 12.7361 28.0946 13.2314 28.4656C13.7268 28.8367 14.0544 29.3894 14.1423 30.002C14.6284 33.3303 16.2961 36.3725 18.8406 38.5724C21.3851 40.7723 24.6364 41.9829 28 41.9829C31.3636 41.9829 34.6149 40.7723 37.1593 38.5724C39.7038 36.3725 41.3716 33.3303 41.8576 30.002C41.9011 29.6986 42.0039 29.4068 42.1602 29.1432C42.3165 28.8795 42.5232 28.6493 42.7684 28.4655C43.0137 28.2818 43.2928 28.1482 43.5897 28.0723C43.8866 27.9964 44.1933 27.9798 44.4966 28.0233ZM28 4.66667C31.0942 4.66667 34.0616 5.89583 36.2496 8.08376C38.4375 10.2717 39.6666 13.2391 39.6666 16.3333V28C39.6666 31.0942 38.4375 34.0617 36.2496 36.2496C34.0616 38.4375 31.0942 39.6667 28 39.6667C24.9058 39.6667 21.9383 38.4375 19.7504 36.2496C17.5625 34.0617 16.3333 31.0942 16.3333 28V16.3333C16.3333 13.2391 17.5625 10.2717 19.7504 8.08376C21.9383 5.89583 24.9058 4.66667 28 4.66667ZM28 9.33334C26.1435 9.33334 24.363 10.0708 23.0502 11.3836C21.7375 12.6963 21 14.4768 21 16.3333V28C21 29.8565 21.7375 31.637 23.0502 32.9498C24.363 34.2625 26.1435 35 28 35C29.8565 35 31.637 34.2625 32.9497 32.9498C34.2625 31.637 35 29.8565 35 28V16.3333C35 14.4768 34.2625 12.6963 32.9497 11.3836C31.637 10.0708 29.8565 9.33334 28 9.33334Z" fill="#E7A645"/>
</g>
<defs>
<clipPath id="clip0_97_289">
<rect width="56" height="56" fill="white"/>
</clipPath>
</defs>
</svg>
