<svg width="68" height="68" viewBox="0 0 68 68" fill="none" xmlns="http://www.w3.org/2000/svg">
<path d="M28.3336 58.8682C25.8675 58.3088 23.499 57.3834 21.3069 56.1227M39.6669 9.13184C45.3 10.4184 50.3294 13.5793 53.9317 18.0971C57.534 22.6149 59.4958 28.2218 59.4958 34C59.4958 39.7782 57.534 45.3851 53.9317 49.9029C50.3294 54.4207 45.3 57.5816 39.6669 58.8682M12.9741 48.4302C11.4285 46.1847 10.2546 43.7049 9.49756 41.0862M8.85156 29.75C9.3049 27.0583 10.1776 24.5083 11.4016 22.1708L11.8804 21.3067M19.5701 12.9738C22.2211 11.1489 25.1951 9.84503 28.3336 9.13184" stroke="white" stroke-width="6" stroke-linecap="round" stroke-linejoin="round"/>
<path d="M25.5 34L31.1667 39.6667L42.5 28.3333" stroke="white" stroke-width="6" stroke-linecap="round" stroke-linejoin="round"/>
</svg>
