<svg width="127" height="41" viewBox="0 0 127 41" fill="none" xmlns="http://www.w3.org/2000/svg">
<circle cx="4.20482" cy="27.2048" r="2.20482" fill="black"/>
<circle cx="4.20482" cy="32.7169" r="2.20482" fill="black"/>
<circle cx="4.20482" cy="38.5964" r="1.95482" stroke="black" stroke-width="0.5"/>
<circle cx="10.0842" cy="27.2048" r="2.20482" fill="black"/>
<circle cx="10.0842" cy="32.7169" r="2.20482" fill="black"/>
<circle cx="10.0842" cy="38.5964" r="1.95482" stroke="black" stroke-width="0.5"/>
<circle cx="31.3977" cy="27.2048" r="2.20482" fill="black"/>
<circle cx="31.3977" cy="32.7169" r="1.95482" stroke="black" stroke-width="0.5"/>
<circle cx="31.3977" cy="38.5964" r="2.20482" fill="black"/>
<circle cx="37.2771" cy="27.2048" r="2.20482" fill="black"/>
<circle cx="37.2771" cy="32.7169" r="1.95482" stroke="black" stroke-width="0.5"/>
<circle cx="37.2771" cy="38.5964" r="1.95482" stroke="black" stroke-width="0.5"/>
<circle cx="45.7287" cy="27.2048" r="2.20482" fill="black"/>
<circle cx="45.7287" cy="32.7169" r="1.95482" stroke="black" stroke-width="0.5"/>
<circle cx="45.7287" cy="38.5964" r="2.20482" fill="black"/>
<circle cx="51.6081" cy="27.2048" r="1.95482" stroke="black" stroke-width="0.5"/>
<circle cx="51.6081" cy="32.7169" r="2.20482" fill="black"/>
<circle cx="51.6081" cy="38.5964" r="1.95482" stroke="black" stroke-width="0.5"/>
<circle cx="60.0603" cy="27.2048" r="2.20482" fill="black"/>
<circle cx="60.0603" cy="32.7169" r="1.95482" stroke="black" stroke-width="0.5"/>
<circle cx="60.0603" cy="38.5964" r="2.20482" fill="black"/>
<circle cx="65.9397" cy="27.2048" r="1.95482" stroke="black" stroke-width="0.5"/>
<circle cx="65.9397" cy="32.7169" r="2.20482" fill="black"/>
<circle cx="65.9397" cy="38.5964" r="1.95482" stroke="black" stroke-width="0.5"/>
<circle cx="74.3913" cy="27.2048" r="2.20482" fill="black"/>
<circle cx="74.3913" cy="32.7169" r="1.95482" stroke="black" stroke-width="0.5"/>
<circle cx="74.3913" cy="38.5964" r="1.95482" stroke="black" stroke-width="0.5"/>
<circle cx="80.2707" cy="27.2048" r="2.20482" fill="black"/>
<circle cx="80.2707" cy="32.7169" r="1.95482" stroke="black" stroke-width="0.5"/>
<circle cx="80.2707" cy="38.5964" r="1.95482" stroke="black" stroke-width="0.5"/>
<circle cx="101.584" cy="27.2048" r="2.20482" fill="black"/>
<circle cx="101.584" cy="32.7169" r="1.95482" stroke="black" stroke-width="0.5"/>
<circle cx="101.584" cy="38.5964" r="1.95482" stroke="black" stroke-width="0.5"/>
<circle cx="107.464" cy="27.2048" r="2.20482" fill="black"/>
<circle cx="107.464" cy="32.7169" r="2.20482" fill="black"/>
<circle cx="107.464" cy="38.5964" r="1.95482" stroke="black" stroke-width="0.5"/>
<circle cx="115.916" cy="27.2048" r="2.20482" fill="black"/>
<circle cx="115.916" cy="32.7169" r="1.95482" stroke="black" stroke-width="0.5"/>
<circle cx="115.916" cy="38.5964" r="1.95482" stroke="black" stroke-width="0.5"/>
<circle cx="121.795" cy="27.2048" r="2.20482" fill="black"/>
<circle cx="121.795" cy="32.7169" r="2.20482" fill="black"/>
<circle cx="121.795" cy="38.5964" r="1.95482" stroke="black" stroke-width="0.5"/>
<path d="M8.42 17.24C7.31333 17.24 6.29333 17.0667 5.36 16.72C4.44 16.36 3.63333 15.8533 2.94 15.2C2.26 14.5467 1.72667 13.78 1.34 12.9C0.966667 12.02 0.78 11.0533 0.78 10C0.78 8.94667 0.966667 7.98 1.34 7.1C1.72667 6.22 2.26667 5.45333 2.96 4.8C3.65333 4.14667 4.46667 3.64667 5.4 3.3C6.33333 2.94 7.36 2.76 8.48 2.76C9.72 2.76 10.8333 2.96667 11.82 3.38C12.82 3.79333 13.66 4.39333 14.34 5.18L12.26 7.1C11.7533 6.56667 11.2 6.17333 10.6 5.92C10 5.65333 9.34667 5.52 8.64 5.52C7.96 5.52 7.34 5.62667 6.78 5.84C6.22 6.05333 5.73333 6.36 5.32 6.76C4.92 7.16 4.60667 7.63333 4.38 8.18C4.16667 8.72667 4.06 9.33333 4.06 10C4.06 10.6533 4.16667 11.2533 4.38 11.8C4.60667 12.3467 4.92 12.8267 5.32 13.24C5.73333 13.64 6.21333 13.9467 6.76 14.16C7.32 14.3733 7.93333 14.48 8.6 14.48C9.24 14.48 9.86 14.38 10.46 14.18C11.0733 13.9667 11.6667 13.6133 12.24 13.12L14.08 15.46C13.32 16.0333 12.4333 16.4733 11.42 16.78C10.42 17.0867 9.42 17.24 8.42 17.24ZM11.12 15.04V9.78H14.08V15.46L11.12 15.04ZM16.4697 12.62V10.12H22.1297V12.62H16.4697ZM24.8045 17V3H27.4845L33.4445 12.88H32.0245L37.8845 3H40.5445L40.5845 17H37.5445L37.5245 7.66H38.0845L33.4045 15.52H31.9445L27.1645 7.66H27.8445V17H24.8045ZM50.7061 17.24C49.5994 17.24 48.5728 17.06 47.6261 16.7C46.6928 16.34 45.8794 15.8333 45.1861 15.18C44.5061 14.5267 43.9728 13.76 43.5861 12.88C43.2128 12 43.0261 11.04 43.0261 10C43.0261 8.96 43.2128 8 43.5861 7.12C43.9728 6.24 44.5128 5.47333 45.2061 4.82C45.8994 4.16667 46.7128 3.66 47.6461 3.3C48.5794 2.94 49.5928 2.76 50.6861 2.76C51.7928 2.76 52.8061 2.94 53.7261 3.3C54.6594 3.66 55.4661 4.16667 56.1461 4.82C56.8394 5.47333 57.3794 6.24 57.7661 7.12C58.1528 7.98667 58.3461 8.94667 58.3461 10C58.3461 11.04 58.1528 12.0067 57.7661 12.9C57.3794 13.78 56.8394 14.5467 56.1461 15.2C55.4661 15.84 54.6594 16.34 53.7261 16.7C52.8061 17.06 51.7994 17.24 50.7061 17.24ZM50.6861 14.48C51.3128 14.48 51.8861 14.3733 52.4061 14.16C52.9394 13.9467 53.4061 13.64 53.8061 13.24C54.2061 12.84 54.5128 12.3667 54.7261 11.82C54.9528 11.2733 55.0661 10.6667 55.0661 10C55.0661 9.33333 54.9528 8.72667 54.7261 8.18C54.5128 7.63333 54.2061 7.16 53.8061 6.76C53.4194 6.36 52.9594 6.05333 52.4261 5.84C51.8928 5.62667 51.3128 5.52 50.6861 5.52C50.0594 5.52 49.4794 5.62667 48.9461 5.84C48.4261 6.05333 47.9661 6.36 47.5661 6.76C47.1661 7.16 46.8528 7.63333 46.6261 8.18C46.4128 8.72667 46.3061 9.33333 46.3061 10C46.3061 10.6533 46.4128 11.26 46.6261 11.82C46.8528 12.3667 47.1594 12.84 47.5461 13.24C47.9461 13.64 48.4128 13.9467 48.9461 14.16C49.4794 14.3733 50.0594 14.48 50.6861 14.48ZM67.5811 17.24C66.4744 17.24 65.4478 17.06 64.5011 16.7C63.5678 16.34 62.7544 15.8333 62.0611 15.18C61.3811 14.5267 60.8478 13.76 60.4611 12.88C60.0878 12 59.9011 11.04 59.9011 10C59.9011 8.96 60.0878 8 60.4611 7.12C60.8478 6.24 61.3878 5.47333 62.0811 4.82C62.7744 4.16667 63.5878 3.66 64.5211 3.3C65.4544 2.94 66.4678 2.76 67.5611 2.76C68.6678 2.76 69.6811 2.94 70.6011 3.3C71.5344 3.66 72.3411 4.16667 73.0211 4.82C73.7144 5.47333 74.2544 6.24 74.6411 7.12C75.0278 7.98667 75.2211 8.94667 75.2211 10C75.2211 11.04 75.0278 12.0067 74.6411 12.9C74.2544 13.78 73.7144 14.5467 73.0211 15.2C72.3411 15.84 71.5344 16.34 70.6011 16.7C69.6811 17.06 68.6744 17.24 67.5811 17.24ZM67.5611 14.48C68.1878 14.48 68.7611 14.3733 69.2811 14.16C69.8144 13.9467 70.2811 13.64 70.6811 13.24C71.0811 12.84 71.3878 12.3667 71.6011 11.82C71.8278 11.2733 71.9411 10.6667 71.9411 10C71.9411 9.33333 71.8278 8.72667 71.6011 8.18C71.3878 7.63333 71.0811 7.16 70.6811 6.76C70.2944 6.36 69.8344 6.05333 69.3011 5.84C68.7678 5.62667 68.1878 5.52 67.5611 5.52C66.9344 5.52 66.3544 5.62667 65.8211 5.84C65.3011 6.05333 64.8411 6.36 64.4411 6.76C64.0411 7.16 63.7278 7.63333 63.5011 8.18C63.2878 8.72667 63.1811 9.33333 63.1811 10C63.1811 10.6533 63.2878 11.26 63.5011 11.82C63.7278 12.3667 64.0344 12.84 64.4211 13.24C64.8211 13.64 65.2878 13.9467 65.8211 14.16C66.3544 14.3733 66.9344 14.48 67.5611 14.48ZM84.3561 17.24C83.2761 17.24 82.2694 17.0667 81.3361 16.72C80.4161 16.36 79.6161 15.8533 78.9361 15.2C78.2561 14.5467 77.7228 13.78 77.3361 12.9C76.9628 12.02 76.7761 11.0533 76.7761 10C76.7761 8.94667 76.9628 7.98 77.3361 7.1C77.7228 6.22 78.2561 5.45333 78.9361 4.8C79.6294 4.14667 80.4361 3.64667 81.3561 3.3C82.2761 2.94 83.2828 2.76 84.3761 2.76C85.5894 2.76 86.6828 2.97333 87.6561 3.4C88.6428 3.81333 89.4694 4.42667 90.1361 5.24L88.0561 7.16C87.5761 6.61333 87.0428 6.20667 86.4561 5.94C85.8694 5.66 85.2294 5.52 84.5361 5.52C83.8828 5.52 83.2828 5.62667 82.7361 5.84C82.1894 6.05333 81.7161 6.36 81.3161 6.76C80.9161 7.16 80.6028 7.63333 80.3761 8.18C80.1628 8.72667 80.0561 9.33333 80.0561 10C80.0561 10.6667 80.1628 11.2733 80.3761 11.82C80.6028 12.3667 80.9161 12.84 81.3161 13.24C81.7161 13.64 82.1894 13.9467 82.7361 14.16C83.2828 14.3733 83.8828 14.48 84.5361 14.48C85.2294 14.48 85.8694 14.3467 86.4561 14.08C87.0428 13.8 87.5761 13.38 88.0561 12.82L90.1361 14.74C89.4694 15.5533 88.6428 16.1733 87.6561 16.6C86.6828 17.0267 85.5828 17.24 84.3561 17.24ZM96.9481 14.06V11.88L103.548 3H106.948L100.488 11.88L98.9081 11.42H109.928V14.06H96.9481ZM104.488 17V14.06L104.588 11.42V8.8H107.648V17H104.488ZM111.777 17V3H118.137C119.657 3 120.997 3.29333 122.157 3.88C123.317 4.45333 124.224 5.26 124.877 6.3C125.531 7.34 125.857 8.57333 125.857 10C125.857 11.4133 125.531 12.6467 124.877 13.7C124.224 14.74 123.317 15.5533 122.157 16.14C120.997 16.7133 119.657 17 118.137 17H111.777ZM115.017 14.34H117.977C118.911 14.34 119.717 14.1667 120.397 13.82C121.091 13.46 121.624 12.9533 121.997 12.3C122.384 11.6467 122.577 10.88 122.577 10C122.577 9.10667 122.384 8.34 121.997 7.7C121.624 7.04667 121.091 6.54667 120.397 6.2C119.717 5.84 118.911 5.66 117.977 5.66H115.017V14.34Z" fill="black"/>
</svg>
