<svg width="355" height="106" viewBox="0 0 355 106" fill="none" xmlns="http://www.w3.org/2000/svg">
<circle cx="17" cy="69" r="6" fill="black"/>
<circle cx="17" cy="84" r="6" fill="black"/>
<circle cx="17" cy="100" r="5.5" stroke="black"/>
<circle cx="33" cy="69" r="6" fill="black"/>
<circle cx="33" cy="84" r="6" fill="black"/>
<circle cx="33" cy="100" r="5.5" stroke="black"/>
<circle cx="91" cy="69" r="6" fill="black"/>
<circle cx="91" cy="84" r="5.5" stroke="black"/>
<circle cx="91" cy="100" r="6" fill="black"/>
<circle cx="107" cy="69" r="6" fill="black"/>
<circle cx="107" cy="84" r="5.5" stroke="black"/>
<circle cx="107" cy="100" r="5.5" stroke="black"/>
<circle cx="130" cy="69" r="6" fill="black"/>
<circle cx="130" cy="84" r="5.5" stroke="black"/>
<circle cx="130" cy="100" r="6" fill="black"/>
<circle cx="146" cy="69" r="5.5" stroke="black"/>
<circle cx="146" cy="84" r="6" fill="black"/>
<circle cx="146" cy="100" r="5.5" stroke="black"/>
<circle cx="169" cy="69" r="6" fill="black"/>
<circle cx="169" cy="84" r="5.5" stroke="black"/>
<circle cx="169" cy="100" r="6" fill="black"/>
<circle cx="185" cy="69" r="5.5" stroke="black"/>
<circle cx="185" cy="84" r="6" fill="black"/>
<circle cx="185" cy="100" r="5.5" stroke="black"/>
<circle cx="208" cy="69" r="6" fill="black"/>
<circle cx="208" cy="84" r="5.5" stroke="black"/>
<circle cx="208" cy="100" r="5.5" stroke="black"/>
<circle cx="224" cy="69" r="6" fill="black"/>
<circle cx="224" cy="84" r="5.5" stroke="black"/>
<circle cx="224" cy="100" r="5.5" stroke="black"/>
<circle cx="282" cy="69" r="6" fill="black"/>
<circle cx="282" cy="84" r="5.5" stroke="black"/>
<circle cx="282" cy="100" r="5.5" stroke="black"/>
<circle cx="298" cy="69" r="6" fill="black"/>
<circle cx="298" cy="84" r="6" fill="black"/>
<circle cx="298" cy="100" r="5.5" stroke="black"/>
<circle cx="321" cy="69" r="6" fill="black"/>
<circle cx="321" cy="84" r="5.5" stroke="black"/>
<circle cx="321" cy="100" r="5.5" stroke="black"/>
<circle cx="337" cy="69" r="6" fill="black"/>
<circle cx="337" cy="84" r="6" fill="black"/>
<circle cx="337" cy="100" r="5.5" stroke="black"/>
<path d="M23.576 50.672C20.4773 50.672 17.6213 50.1867 15.008 49.216C12.432 48.208 10.1733 46.7893 8.232 44.96C6.328 43.1307 4.83467 40.984 3.752 38.52C2.70667 36.056 2.184 33.3493 2.184 30.4C2.184 27.4507 2.70667 24.744 3.752 22.28C4.83467 19.816 6.34667 17.6693 8.288 15.84C10.2293 14.0107 12.5067 12.6107 15.12 11.64C17.7333 10.632 20.608 10.128 23.744 10.128C27.216 10.128 30.3333 10.7067 33.096 11.864C35.896 13.0213 38.248 14.7013 40.152 16.904L34.328 22.28C32.9093 20.7867 31.36 19.6853 29.68 18.976C28 18.2293 26.1707 17.856 24.192 17.856C22.288 17.856 20.552 18.1547 18.984 18.752C17.416 19.3493 16.0533 20.208 14.896 21.328C13.776 22.448 12.8987 23.7733 12.264 25.304C11.6667 26.8347 11.368 28.5333 11.368 30.4C11.368 32.2293 11.6667 33.9093 12.264 35.44C12.8987 36.9707 13.776 38.3147 14.896 39.472C16.0533 40.592 17.3973 41.4507 18.928 42.048C20.496 42.6453 22.2133 42.944 24.08 42.944C25.872 42.944 27.608 42.664 29.288 42.104C31.0053 41.5067 32.6667 40.5173 34.272 39.136L39.424 45.688C37.296 47.2933 34.8133 48.5253 31.976 49.384C29.176 50.2427 26.376 50.672 23.576 50.672ZM31.136 44.512V29.784H39.424V45.688L31.136 44.512ZM46.1151 37.736V30.736H61.9631V37.736H46.1151ZM69.4527 50V10.8H76.9567L93.6447 38.464H89.6687L106.077 10.8H113.525L113.637 50H105.125L105.069 23.848H106.637L93.5327 45.856H89.4447L76.0607 23.848H77.9647V50H69.4527ZM141.977 50.672C138.878 50.672 136.004 50.168 133.353 49.16C130.74 48.152 128.462 46.7333 126.521 44.904C124.617 43.0747 123.124 40.928 122.041 38.464C120.996 36 120.473 33.312 120.473 30.4C120.473 27.488 120.996 24.8 122.041 22.336C123.124 19.872 124.636 17.7253 126.577 15.896C128.518 14.0667 130.796 12.648 133.409 11.64C136.022 10.632 138.86 10.128 141.921 10.128C145.02 10.128 147.857 10.632 150.433 11.64C153.046 12.648 155.305 14.0667 157.209 15.896C159.15 17.7253 160.662 19.872 161.745 22.336C162.828 24.7627 163.369 27.4507 163.369 30.4C163.369 33.312 162.828 36.0187 161.745 38.52C160.662 40.984 159.15 43.1307 157.209 44.96C155.305 46.752 153.046 48.152 150.433 49.16C147.857 50.168 145.038 50.672 141.977 50.672ZM141.921 42.944C143.676 42.944 145.281 42.6453 146.737 42.048C148.23 41.4507 149.537 40.592 150.657 39.472C151.777 38.352 152.636 37.0267 153.233 35.496C153.868 33.9653 154.185 32.2667 154.185 30.4C154.185 28.5333 153.868 26.8347 153.233 25.304C152.636 23.7733 151.777 22.448 150.657 21.328C149.574 20.208 148.286 19.3493 146.793 18.752C145.3 18.1547 143.676 17.856 141.921 17.856C140.166 17.856 138.542 18.1547 137.049 18.752C135.593 19.3493 134.305 20.208 133.185 21.328C132.065 22.448 131.188 23.7733 130.553 25.304C129.956 26.8347 129.657 28.5333 129.657 30.4C129.657 32.2293 129.956 33.928 130.553 35.496C131.188 37.0267 132.046 38.352 133.129 39.472C134.249 40.592 135.556 41.4507 137.049 42.048C138.542 42.6453 140.166 42.944 141.921 42.944ZM189.227 50.672C186.128 50.672 183.254 50.168 180.603 49.16C177.99 48.152 175.712 46.7333 173.771 44.904C171.867 43.0747 170.374 40.928 169.291 38.464C168.246 36 167.723 33.312 167.723 30.4C167.723 27.488 168.246 24.8 169.291 22.336C170.374 19.872 171.886 17.7253 173.827 15.896C175.768 14.0667 178.046 12.648 180.659 11.64C183.272 10.632 186.11 10.128 189.171 10.128C192.27 10.128 195.107 10.632 197.683 11.64C200.296 12.648 202.555 14.0667 204.459 15.896C206.4 17.7253 207.912 19.872 208.995 22.336C210.078 24.7627 210.619 27.4507 210.619 30.4C210.619 33.312 210.078 36.0187 208.995 38.52C207.912 40.984 206.4 43.1307 204.459 44.96C202.555 46.752 200.296 48.152 197.683 49.16C195.107 50.168 192.288 50.672 189.227 50.672ZM189.171 42.944C190.926 42.944 192.531 42.6453 193.987 42.048C195.48 41.4507 196.787 40.592 197.907 39.472C199.027 38.352 199.886 37.0267 200.483 35.496C201.118 33.9653 201.435 32.2667 201.435 30.4C201.435 28.5333 201.118 26.8347 200.483 25.304C199.886 23.7733 199.027 22.448 197.907 21.328C196.824 20.208 195.536 19.3493 194.043 18.752C192.55 18.1547 190.926 17.856 189.171 17.856C187.416 17.856 185.792 18.1547 184.299 18.752C182.843 19.3493 181.555 20.208 180.435 21.328C179.315 22.448 178.438 23.7733 177.803 25.304C177.206 26.8347 176.907 28.5333 176.907 30.4C176.907 32.2293 177.206 33.928 177.803 35.496C178.438 37.0267 179.296 38.352 180.379 39.472C181.499 40.592 182.806 41.4507 184.299 42.048C185.792 42.6453 187.416 42.944 189.171 42.944ZM236.197 50.672C233.173 50.672 230.354 50.1867 227.741 49.216C225.165 48.208 222.925 46.7893 221.021 44.96C219.117 43.1307 217.624 40.984 216.541 38.52C215.496 36.056 214.973 33.3493 214.973 30.4C214.973 27.4507 215.496 24.744 216.541 22.28C217.624 19.816 219.117 17.6693 221.021 15.84C222.962 14.0107 225.221 12.6107 227.797 11.64C230.373 10.632 233.192 10.128 236.253 10.128C239.65 10.128 242.712 10.7253 245.437 11.92C248.2 13.0773 250.514 14.7947 252.381 17.072L246.557 22.448C245.213 20.9173 243.72 19.7787 242.077 19.032C240.434 18.248 238.642 17.856 236.701 17.856C234.872 17.856 233.192 18.1547 231.661 18.752C230.13 19.3493 228.805 20.208 227.685 21.328C226.565 22.448 225.688 23.7733 225.053 25.304C224.456 26.8347 224.157 28.5333 224.157 30.4C224.157 32.2667 224.456 33.9653 225.053 35.496C225.688 37.0267 226.565 38.352 227.685 39.472C228.805 40.592 230.13 41.4507 231.661 42.048C233.192 42.6453 234.872 42.944 236.701 42.944C238.642 42.944 240.434 42.5707 242.077 41.824C243.72 41.04 245.213 39.864 246.557 38.296L252.381 43.672C250.514 45.9493 248.2 47.6853 245.437 48.88C242.712 50.0747 239.632 50.672 236.197 50.672ZM271.455 41.768V35.664L289.935 10.8H299.455L281.367 35.664L276.943 34.376H307.799V41.768H271.455ZM292.567 50V41.768L292.847 34.376V27.04H301.415V50H292.567ZM312.976 50V10.8H330.784C335.04 10.8 338.792 11.6213 342.04 13.264C345.288 14.8693 347.827 17.128 349.656 20.04C351.485 22.952 352.4 26.4053 352.4 30.4C352.4 34.3573 351.485 37.8107 349.656 40.76C347.827 43.672 345.288 45.9493 342.04 47.592C338.792 49.1973 335.04 50 330.784 50H312.976ZM322.048 42.552H330.336C332.949 42.552 335.208 42.0667 337.112 41.096C339.053 40.088 340.547 38.6693 341.592 36.84C342.675 35.0107 343.216 32.864 343.216 30.4C343.216 27.8987 342.675 25.752 341.592 23.96C340.547 22.1307 339.053 20.7307 337.112 19.76C335.208 18.752 332.949 18.248 330.336 18.248H322.048V42.552Z" fill="black"/>
</svg>
